<svg data-v-0dd9719b="" version="1.0" xmlns="http://www.w3.org/2000/svg" xmlns:xlink="http://www.w3.org/1999/xlink" width="100%" height="100%" viewBox="0 0 340.000000 250.000000" preserveAspectRatio="xMidYMid meet" color-interpolation-filters="sRGB" style="margin: auto;"> <rect data-v-0dd9719b="" x="0" y="0" width="100%" height="100%" fill="#fff" fill-opacity="1" class="background"></rect> <rect data-v-0dd9719b="" x="0" y="0" width="100%" height="100%" fill="url(#watermark)" fill-opacity="1" class="watermarklayer"></rect> <g data-v-0dd9719b="" fill="#333" class="icon-text-wrapper icon-svg-group iconsvg" transform="translate(96.65499877929688,91.58758926391602)"><g class="iconsvg-imagesvg" transform="translate(0,0)"><g><rect fill="#333" fill-opacity="0" stroke-width="2" x="0" y="0" width="60" height="66.82481873767918" class="image-rect"></rect> <svg x="0" y="0" width="60" height="66.82481873767918" filtersec="colorsb845671552" class="image-svg-svg primary" style="overflow: visible;"><svg xmlns="http://www.w3.org/2000/svg" viewBox="0 -0.0028373277746140957 89.81000518798828 100.02556610107422"><title>资源 134</title><path d="M64.35 47.87c-.58 0-1.17 0-1.74.05.34.73.66 1.46 1 2.2a64.86 64.86 0 0 1 5.14 25.46 65.77 65.77 0 0 1-1.34 13.26L84.44 79a11.89 11.89 0 0 0 5.37-9.28v-10a33.48 33.48 0 0 0-25.46-11.85zM21.49 69a9.3 9.3 0 0 1 9.3-9.31 9.07 9.07 0 0 1 1.66.15 39.44 39.44 0 0 1 4.73-5.73 38.15 38.15 0 0 1 15.09-9.32 58 58 0 0 0-41.94-26.64L5.38 21A11.9 11.9 0 0 0 0 30.28v39.44A11.9 11.9 0 0 0 5.38 79l22 12.68a38.86 38.86 0 0 1-1.19-14.63 9.3 9.3 0 0 1-4.7-8.05z" fill="#275cde"></path><path d="M84.44 21L50.28 1.28a11.86 11.86 0 0 0-10.73 0L20.29 12.4a64 64 0 0 1 8.49 2.92 65.23 65.23 0 0 1 20.79 14 65.61 65.61 0 0 1 10.52 13.76 37.62 37.62 0 0 1 4.26-.24 38.33 38.33 0 0 1 25.46 9.64v-22.2A11.92 11.92 0 0 0 84.44 21z" fill="#0a2183"></path><path d="M37 62.08a9.31 9.31 0 0 1-5.95 16.2c-.08 1-.13 2-.13 3a33.2 33.2 0 0 0 3.26 14.39l5.33 3.07a11.84 11.84 0 0 0 10.72 0l7.87-4.54a57.76 57.76 0 0 0-3.27-44.94A33.46 33.46 0 0 0 37 62.08z" fill="#01cfff"></path></svg></svg> <!----></g></g> <g transform="translate(67,10.142410278320312)"><g data-gra="path-name" fill-rule="" class="tp-name iconsvg-namesvg"><g transform="scale(1)"><g><path d="M19.76 0L8.13-0.07Q6.57-0.07 5.56-0.55 4.55-1.04 3.97-1.82 3.38-2.6 3.22-3.31 3.06-4.03 3.06-6.5L3.06-6.5 3.06-36.86Q3.06-42.32 3.19-43.06 3.31-43.81 4.32-44.91 5.33-46.02 7.41-46.02L7.41-46.02 20.02-46.02Q22.88-46.02 25.41-45.44 27.95-44.85 30.97-43.13 34-41.41 36.14-37.73 38.29-34.06 38.77-31.88 39.26-29.71 39.45-28.05 39.65-26.39 39.72-23.79 39.78-21.19 39.39-18.2L39.39-18.2Q38.8-13.71 37.38-10.69 35.95-7.67 33.44-5.17 30.94-2.67 28.37-1.69 25.8-0.72 23.76-0.36 21.71 0 19.76 0L19.76 0ZM20.15-42.12L10.14-42.12Q8.97-42.12 8.19-41.96 7.41-41.8 7.18-41.6 6.96-41.41 6.89-40.95L6.89-40.95 6.96-38.8 6.96-8.64Q6.96-5.72 6.99-5.4 7.02-5.07 7.38-4.58 7.74-4.09 8.78-4.09L8.78-4.09 19.63-4.16Q22.88-4.16 25.19-4.94 27.5-5.72 29.45-7.21 31.39-8.71 32.18-9.95 32.95-11.18 33.54-12.48 34.13-13.78 34.58-15.21 35.04-16.64 35.43-19.44 35.81-22.23 35.55-25.74L35.55-25.74Q35.23-29.71 34.16-32.6 33.09-35.49 29.77-38.8 26.46-42.12 20.15-42.12L20.15-42.12ZM77.22-21.13L64.22-21.19Q63.51-21.19 62.92-21.61 62.34-22.04 62.17-22.85 62.01-23.66 62.53-24.34 63.05-25.03 64.28-25.03L64.28-25.03 76.9-25.03Q78.97-25.03 80.05-24.83 81.12-24.64 81.67-24.12 82.22-23.6 82.48-22.55 82.75-21.52 82.75-20.15L82.75-20.15Q82.75-17.88 82.22-15.28 81.71-12.68 80.44-10.24 79.17-7.8 76.73-5.46 74.3-3.12 71.24-1.79 68.19-0.46 64.67-0.26L64.67-0.26Q60.52 0 57.59-0.98 54.66-1.95 52.88-2.93 51.09-3.9 48.98-6.08 46.87-8.26 45.66-10.53 44.46-12.8 43.78-15.47 43.09-18.14 43-20.12 42.9-22.1 42.97-24.18L42.97-24.18Q43.03-26.59 43.26-28.34 43.48-30.1 43.94-32.01 44.4-33.93 45.66-36.27 46.93-38.61 48.62-40.33 50.31-42.05 52.1-43.26 53.89-44.46 57.04-45.5 60.19-46.54 63.44-46.54L63.44-46.54Q65.26-46.54 67.96-45.99 70.66-45.44 72.96-44.07 75.27-42.7 77.35-40.63 79.43-38.55 80.8-35.65 82.16-32.76 82.03-31.53L82.03-31.53Q81.9-30.68 81.38-30.06 80.86-29.45 80.02-29.45L80.02-29.45Q79.37-29.45 78.88-29.77 78.39-30.1 77.84-32.01 77.28-33.93 76.12-35.72 74.94-37.51 72.8-39.29 70.66-41.08 68.67-41.86 66.69-42.64 63.51-42.64L63.51-42.64Q60.39-42.64 57.69-41.76 54.99-40.88 52.68-38.87 50.38-36.86 49.3-35 48.23-33.15 47.58-30.91 46.93-28.67 46.7-26.88 46.48-25.09 46.54-22.88L46.54-22.88Q46.54-21.58 46.7-19.82 46.87-18.07 47.58-15.67 48.3-13.26 49.63-11.44 50.96-9.62 52.52-8.19 54.08-6.76 55.54-5.95 57.01-5.13 58.89-4.71 60.78-4.29 62.86-4.36L62.86-4.36Q66.82-4.49 69.75-5.79 72.67-7.08 74.72-9.1 76.77-11.12 77.55-13 78.33-14.88 78.65-16.74 78.97-18.59 78.97-19.44L78.97-19.44Q78.91-20.21 78.49-20.67 78.06-21.13 77.22-21.13L77.22-21.13Z" transform="translate(-3.059999942779541, 46.540000915527344)"></path></g> <!----> <!----> <!----> <!----> <!----> <!----> <!----></g></g> <!----></g></g><defs v-gra="od"></defs></svg>